<svg preserveAspectRatio="none" width="100%" height="100%" overflow="visible" style="display: block;" viewBox="0 0 104 27.2381" fill="none" xmlns="http://www.w3.org/2000/svg">
<g id="image 337 [Vectorized]" clip-path="url(#clip0_0_75)">
<path id="Vector" d="M98.6727 10.3976C98.9987 10.4802 99.8808 11.2284 100.199 11.4613C100.14 11.8321 100.099 12.2081 100.049 12.5806C100.908 13.5954 102.694 15.4438 103.092 16.646C103.202 16.9803 103.193 17.4049 103.178 17.7557C103.149 18.4069 102.748 20.8487 102.304 21.267C101.89 21.6564 101.032 21.7891 100.484 21.7593C99.6289 21.7128 99.1546 21.1068 98.6245 20.495C98.46 21.0979 98.2431 21.7282 97.7729 22.1457C97.5088 22.3801 97.1864 22.501 96.8395 22.4679C96.2058 22.4073 95.7609 21.9487 95.376 21.4656C94.7798 22.0602 94.1755 22.6111 93.3143 22.6769C92.8131 22.7152 92.2855 22.636 91.897 22.277C91.3953 21.8137 91.2917 21.1783 91.2511 20.5182C90.3111 20.8776 89.4392 21.3966 88.4789 21.7212C86.0942 22.527 82.4694 22.5858 80.0274 21.9704C79.2763 21.7813 78.5892 21.4189 77.8524 21.1876C77.8174 21.5796 77.8245 21.9758 77.8128 22.3692C77.8052 22.6211 77.8326 22.9378 77.6478 23.1193C77.5239 23.1399 77.4198 23.0953 77.3111 23.038C76.1766 22.4406 75.8537 21.6645 75.4738 20.487C72.722 20.825 71.3407 22.1021 69.4187 24.0069C68.8748 24.5461 68.3193 25.1338 67.6606 25.5181C67.163 25.8085 66.5069 25.9925 65.9447 25.8213C65.541 25.6984 65.2703 25.3772 65.0764 25.0008C64.3172 23.5317 64.5985 22.2766 65.0276 20.7605C65.1739 20.32 65.4831 19.0643 65.867 18.8633L65.9127 18.9175C65.897 19.3622 65.6202 19.9191 65.4826 20.3456C65.1957 21.2335 64.9966 22.2279 65.4181 23.1089C65.6035 23.4957 65.8975 23.8408 66.3002 23.9765C67.685 24.4435 69.4618 22.0802 70.3861 21.1946C70.9132 20.6891 71.4662 20.2467 72.0898 19.8785C72.8479 19.4309 73.6878 19.0635 74.5425 18.878C74.8487 18.8115 75.258 18.8133 75.5419 18.6994C75.6901 18.6399 75.7602 18.441 75.8887 18.3823C76.0131 18.3254 77.8021 19.2826 78.0967 19.4054C78.8625 19.725 79.6831 20.0117 80.49 20.1859C82.5441 20.6297 85.3173 20.6908 87.3602 20.2117C88.8572 19.8605 90.2684 19.2418 91.672 18.6101L91.6918 19.0461C91.7187 19.5825 91.7523 20.1722 92.1646 20.5545C92.4901 20.8566 92.9893 20.9495 93.4113 20.9168C94.6316 20.822 95.47 19.5692 96.1982 18.6777C96.1814 19.0879 96.0707 19.5604 96.1215 19.9649C96.1438 20.1432 96.2068 20.3156 96.349 20.4251C96.5927 20.6119 97.1016 20.611 97.387 20.5623C98.2868 20.4088 98.4716 19.0949 98.9398 18.416C99.4436 20.5297 103.956 20.4686 102.118 17.6803C101.556 16.8267 100.744 15.8925 100.097 15.0822C99.4075 14.2189 98.7509 12.8289 97.9262 12.214C98.1207 11.48 98.2152 10.9985 98.6727 10.3976Z" fill="var(--fill-0, white)"/>
<path id="Vector_2" d="M66.9685 7.89537C67.3367 7.97315 67.9938 8.57696 68.3167 8.84652L68.1893 10.3586C68.7017 11.4419 69.5263 12.9131 69.8894 14.0218C70.0012 14.7836 69.8752 15.8563 69.7269 16.5751C69.4593 17.8705 69.2196 19.3925 67.551 18.973C66.0128 18.5863 65.606 17.6142 64.8276 16.3076C64.5945 16.9133 64.5076 17.5665 64.242 18.1926C63.5382 19.8533 61.3262 21.2602 59.8495 19.6809C58.7577 18.5133 58.8257 17.2143 58.8333 15.6781L58.8481 13.2873C58.197 14.2518 57.449 15.8434 57.2947 17.13C57.0337 19.3019 55.8286 22.0657 54.0208 18.8231C53.3698 17.6557 53.3911 14.6741 53.8349 13.3195C54.0238 14.6433 53.6608 16.2729 54.2833 17.4574C55.0517 18.5965 55.9596 18.8787 56.4745 17.3558C57.0022 15.7971 57.5318 12.0567 59.0857 11.2625L59.1731 11.3073C59.3884 11.8171 59.1482 15.3842 59.3081 16.1059C59.4838 16.9043 60.047 17.9418 60.732 18.368C61.7497 19.0009 63.5499 17.7319 64.0486 16.8092C64.8748 15.2796 63.8231 12.8475 63.5535 11.2288C63.3534 10.0262 63.3453 9.73655 63.9765 8.71006C64.4269 9.7857 64.659 11.3697 64.9129 12.5217C65.1297 13.5062 65.1871 14.4368 65.7259 15.3314C66.2083 16.1322 66.8375 16.802 67.7419 17.0343C68.0923 17.1615 69.2531 17.1539 69.2587 16.5608C69.2709 15.1674 68.2385 13.6831 67.7048 12.4292C67.3072 11.4956 66.8817 10.3247 66.3942 9.52875C66.5059 8.88089 66.6247 8.44242 66.9685 7.89537Z" fill="var(--fill-0, white)"/>
<path id="Vector_3" d="M48.9806 0.763021C49.2847 0.907085 49.7787 1.84807 50.0132 2.20571C50.0366 2.94821 49.776 3.63417 49.8564 4.36746C50.4203 9.51098 52.1895 14.5757 52.1763 19.7679C52.1737 20.7988 51.832 22.049 51.4953 22.998L51.4029 23.1551L51.3496 23.1269C51.3379 22.7606 51.5009 22.3709 51.5141 22.0143C51.6436 18.5851 50.7364 15.097 50.1097 11.7604C49.5233 8.63782 49.1663 5.57912 48.4852 2.49062C48.3739 1.98577 48.6873 1.1648 48.9806 0.763021Z" fill="var(--fill-0, white)"/>
<path id="Vector_4" d="M18.4072 3.56863C18.621 3.55116 18.596 3.51757 18.7478 3.62252C18.8517 3.99765 18.2708 4.66634 17.9476 4.81932C17.376 5.08993 16.7762 5.27269 16.1779 5.4648L13.6778 6.27034C11.2731 7.03572 8.89425 7.88723 6.54526 8.82328C5.58778 9.20243 4.37638 9.6625 3.47247 10.1187C3.36418 10.1796 3.34924 10.1877 3.22695 10.1877L3.1577 10.1114C3.08227 9.67489 3.47973 8.7305 3.90785 8.53393C5.02924 8.01911 6.21701 7.6198 7.37548 7.19729C9.40242 6.4616 11.4427 5.76718 13.4953 5.11437C15.0845 4.59117 16.7982 4.0067 18.4072 3.56863Z" fill="var(--fill-0, white)"/>
<path id="Vector_5" d="M41.3436 1.41471C41.4747 1.46661 41.432 1.44133 41.5255 1.57093C41.5927 1.93844 41.2302 2.87997 40.91 3.04576C40.5183 3.24863 40.0305 3.41351 39.6126 3.57141C38.8187 3.86742 38.0289 4.17551 37.2435 4.4956C34.3702 5.69148 31.7796 6.84995 29.0084 8.26979C28.9191 8.30628 28.9583 8.30495 28.8595 8.26676C28.8251 8.13833 28.8405 8.02438 28.8574 7.89526C28.9118 7.47887 28.9794 7.09073 29.2684 6.77536C30.1821 5.7783 37.1275 3.16569 38.8791 2.47279C39.6529 2.16668 40.6907 1.93436 41.3436 1.41471Z" fill="var(--fill-0, white)"/>
<path id="Vector_6" d="M69.4142 0.341053C69.7809 0.441929 70.3826 1.29194 70.5868 1.63125C70.5472 2.30175 70.372 3.03383 70.4349 3.70217C70.5238 4.6449 70.7493 5.64178 70.9534 6.56373L71.836 10.442C72.4784 13.2576 72.6805 14.3266 71.7476 17.0661L71.7029 17.1318C71.6603 17.0645 71.6598 15.3098 71.6481 15.0606C71.6303 14.7008 71.5917 14.3426 71.5323 13.9878C71.2693 12.4129 70.7259 10.5725 70.3923 8.97696C69.9596 7.14147 69.6153 5.28996 69.2675 3.43851C68.9912 1.96739 68.4001 1.85146 69.4142 0.341053Z" fill="var(--fill-0, white)"/>
<path id="Vector_7" d="M25.8847 0.926246C26.2923 1.11424 26.6185 1.77726 26.7821 2.19641C26.5879 3.73848 26.9247 4.83131 27.2165 6.37456L28.369 12.3443C28.8604 14.8066 29.6984 17.8004 28.6505 20.2092C28.5948 19.6962 28.7136 19.0109 28.6359 18.5316C28.3562 16.8062 27.9498 15.082 27.6206 13.361L26.5373 7.59756C26.311 6.34344 26.1237 4.75254 25.7483 3.57867C25.2842 2.12744 24.91 2.42342 25.8847 0.926246Z" fill="var(--fill-0, white)"/>
<path id="Vector_8" d="M84.8396 13.7193C84.8594 13.7164 84.8787 13.7137 84.8985 13.7121C85.1163 13.6952 85.2931 13.8068 85.4535 13.9494C85.8192 14.2753 86.1045 14.8076 86.1406 15.313C86.1574 15.5427 86.1193 15.8261 85.9679 16.0054C85.8872 16.1009 85.8395 16.1522 85.7171 16.1607C85.6267 16.0506 85.6252 15.9127 85.6038 15.7754C85.5404 15.3642 85.389 15.1545 85.0615 14.9123C84.9345 14.8184 84.8777 14.8121 84.7289 14.8395C84.5811 14.9629 84.5202 15.1096 84.4658 15.2956C84.1825 16.2634 84.2053 17.5889 83.8996 18.6653C83.8463 18.8528 83.7767 19.0489 83.6066 19.1441C83.274 18.8632 83.0231 17.721 82.8484 17.2687C82.7383 16.984 82.6052 16.7152 82.4615 16.4479C82.3681 16.3092 82.2706 16.1447 82.137 16.0449C81.8074 15.7989 81.4931 16.1498 81.1742 16.1993C81.0813 16.2137 81.0036 16.1929 80.9294 16.133C80.7725 16.0059 80.7177 15.7306 80.6989 15.5368C80.6633 15.1605 80.6938 14.649 80.9375 14.3456C81.0381 14.2206 81.1732 14.1457 81.3301 14.1344C81.5363 14.1196 81.7709 14.2193 81.9516 14.315C83.2725 15.0147 83.0196 16.8852 83.7503 17.5623C84.0149 17.3951 84.1611 14.6876 84.51 14.0722C84.5887 13.9333 84.7228 13.8224 84.8396 13.7193Z" fill="var(--fill-0, white)"/>
<path id="Vector_9" d="M92.953 12.9445C93.4314 12.965 95.3316 13.123 95.6556 13.376C95.7323 13.4358 95.7592 13.506 95.7699 13.6057C95.8237 14.115 95.0935 15.0463 94.7872 15.412C93.9235 16.4416 93.1688 16.5836 91.9049 16.6687C91.8231 16.6616 91.7724 16.6393 91.7013 16.5984C91.8973 16.0875 93.9565 15.6946 94.2723 15.0611L94.2342 14.9605C93.7381 14.6701 92.721 14.8427 92.139 14.6994C92.0065 14.6668 91.9674 14.6404 91.8963 14.5223C91.9008 14.1225 92.2289 13.6533 92.4406 13.3301C92.5874 13.1065 92.6956 12.9947 92.953 12.9445Z" fill="var(--fill-0, white)"/>
<path id="Vector_10" d="M56.2594 7.02389C57.4613 6.95872 57.8214 9.07084 57.3039 9.27556C56.9886 9.13154 56.9728 8.72766 56.69 8.56231C55.3001 7.74916 55.7013 10.7889 55.2808 11.4909L55.1874 11.51C54.8766 11.3256 54.2073 10.1028 53.9483 9.68019C53.5913 9.14506 53.4867 9.40834 53.0195 9.37126C52.6544 9.34227 52.4995 8.55465 52.5686 8.22891C52.663 7.79933 52.8017 7.59217 53.2506 7.61111C54.092 7.6467 54.7232 10.035 55.1833 10.1194C55.6718 9.56384 55.0503 7.70841 56.2594 7.02389Z" fill="var(--fill-0, white)"/>
<path id="Vector_11" d="M56.5899 0.104678C57.2978 0.304074 58.2068 1.46366 58.3931 2.18922C58.4769 2.54197 58.4845 3.26446 58.0478 3.36602C57.7132 3.4439 57.2622 3.04062 56.9809 2.84223C56.0638 3.90689 55.5108 4.35753 54.2722 5.02957C53.8406 5.23538 53.4633 5.35173 53.0047 5.46712C53.2165 5.23455 53.7477 4.91216 54.0188 4.73175C54.8948 4.14891 55.8424 3.55934 56.5178 2.7223C56.368 2.70294 55.8414 2.65464 55.7718 2.57619C55.3859 2.13929 56.404 0.390362 56.5899 0.104678ZM56.7382 1.9514C56.7229 1.6778 56.3644 1.51004 56.1405 1.41779C56.0745 1.58336 55.9897 1.73284 56.0415 1.89797C56.242 2.05463 56.4746 1.98416 56.7382 1.9514Z" fill="var(--fill-0, white)"/>
<path id="Vector_12" d="M7.90559 2.31632C8.36495 2.29905 9.81146 2.18884 10.0875 2.51599C10.2691 3.28314 8.71255 5.21711 7.97561 5.39734C7.71307 5.46155 7.09573 5.78916 6.83857 5.6776L6.83182 5.59391L6.98929 5.43996C7.59475 4.91277 8.20332 4.56161 8.81208 3.94545C8.14548 3.87849 6.63392 4.04099 6.301 3.86839C5.99255 3.48198 6.45974 2.8353 6.69247 2.47933C7.03489 2.34704 7.53834 2.33599 7.90559 2.31632Z" fill="var(--fill-0, white)"/>
<path id="Vector_13" d="M29.9394 1.48905C30.259 1.45746 32.9548 1.45568 32.9366 1.84588C32.8736 3.19769 31.8762 3.94069 30.7863 4.38092C30.6086 4.43292 30.2477 4.59163 30.1402 4.40867C30.2926 4.12405 31.3969 3.48914 31.7355 3.26198C30.9708 3.15831 30.2244 3.24281 29.4471 3.12257C29.5522 2.544 29.6807 2.01449 29.9394 1.48905Z" fill="var(--fill-0, white)"/>
<path id="Vector_14" d="M47.079 21.0157C47.093 21.0171 47.1069 21.0188 47.1208 21.021C47.389 21.0629 47.5791 21.2049 47.7334 21.4351C47.9679 21.7849 48.0236 22.2537 47.9496 22.667C47.9208 22.8276 47.8538 23.1274 47.7192 23.2228C47.5411 23.0395 47.5334 22.6614 47.3645 22.4252C47.2453 22.2585 47.1229 22.179 46.9264 22.1509C46.0255 22.3069 46.2885 24.4144 45.661 24.985C45.6445 25.0001 45.5876 24.9868 45.5641 24.9848C45.2044 24.5512 44.9989 23.9801 44.6333 23.5254C44.5229 23.4023 44.3982 23.2882 44.2816 23.1712C44.2028 23.1629 44.1242 23.1538 44.0456 23.144C43.8448 23.1186 43.6548 23.1083 43.5208 22.9246C43.3821 22.7345 43.3463 22.475 43.3754 22.2426C43.3999 22.0467 43.4797 21.82 43.6376 21.7002C43.7519 21.6135 43.8872 21.5942 44.0231 21.6218C44.7919 21.7779 45.3278 23.355 45.7322 23.9963C45.9384 23.3785 45.9411 22.7039 46.1503 22.0931C46.327 21.577 46.607 21.2487 47.079 21.0157Z" fill="var(--fill-0, white)"/>
<path id="Vector_15" d="M58.006 21.5423C58.0705 21.5411 58.134 21.5629 58.196 21.579C58.2417 21.7008 58.2198 21.7881 58.1721 21.9086C58.0243 22.2845 57.7196 22.5726 57.386 22.7671C56.6933 23.171 55.7747 23.3345 55.013 23.569C54.3427 23.7753 53.6967 24.0247 53.0498 24.2991L52.9096 24.309C52.8797 24.2843 52.8421 24.2668 52.835 24.2267C52.7695 23.8725 53.1239 23.2717 53.3138 22.9878C54.8322 22.3843 56.4689 22.1098 58.006 21.5423Z" fill="var(--fill-0, white)"/>
<path id="Vector_16" d="M62.8973 4.71066C62.9907 4.76879 63.0994 4.99027 63.1715 5.08975C63.6336 5.72978 63.8951 6.84734 63.1852 7.40503C62.882 7.64342 62.4311 7.46855 62.0792 7.38487C61.5673 7.78243 61.256 8.32166 60.7655 7.31502C60.5233 6.81883 60.3709 6.18437 60.5507 5.64046C60.9249 5.91146 60.9341 6.78526 61.3957 7.09025C61.5399 7.1326 61.5673 7.1285 61.707 7.07051C62.035 6.59507 61.2723 5.66706 61.6948 5.25807C62.1538 5.43389 62.4443 6.81505 63.0948 6.53363C63.1227 6.38552 62.8206 5.72489 62.7373 5.49954C62.7693 5.2522 62.8424 4.95764 62.8973 4.71066Z" fill="var(--fill-0, white)"/>
<path id="Vector_17" d="M7.33148 24.2905C7.98671 24.4659 8.64265 24.9366 9.19495 25.3324C9.0162 25.9561 8.74721 26.5475 8.39748 27.0859C7.9276 26.7758 7.14019 26.4397 6.7513 26.0867C6.64009 25.9858 6.55544 25.8619 6.54686 25.7025C6.52126 25.2283 7.03994 24.6217 7.33148 24.2905Z" fill="var(--fill-0, white)"/>
<path id="Vector_18" d="M18.0939 16.4121C18.138 16.435 18.1793 16.4661 18.2173 16.4987C18.4889 16.7322 18.6863 17.1963 18.7171 17.5595C18.7487 17.9334 18.6432 18.3744 18.4075 18.6637C18.2852 18.8137 18.1234 18.9126 17.9336 18.9262C17.6132 18.9491 17.4106 18.7024 17.1886 18.4981C17.1719 18.5223 17.155 18.5463 17.1377 18.57C16.9499 18.8271 16.7677 19.1176 16.4397 19.164C16.3692 19.1372 16.3001 19.1236 16.2473 19.0663C16.1277 18.9367 15.6119 17.3687 15.614 17.1759C15.633 17.1316 15.6531 17.086 15.6781 17.0452C15.7463 16.934 15.8185 16.8963 15.9346 16.8728C16.246 17.0974 16.198 17.7521 16.3451 18.1086C16.4035 18.25 16.4601 18.2935 16.5923 18.3489C16.6563 18.3289 16.716 18.3207 16.7648 18.2704C17.0533 17.973 16.9008 16.8465 16.912 16.4215C17.2092 16.8329 17.3557 17.341 17.6401 17.7443C17.7356 17.8799 17.9109 17.9362 18.0624 17.9571C18.0933 17.9447 18.1696 17.9261 18.182 17.8958C18.2819 17.6512 18.0218 17.3378 17.9487 17.1147C17.87 16.8743 17.9923 16.6214 18.0939 16.4121Z" fill="var(--fill-0, white)"/>
<path id="Vector_19" d="M42.7614 14.1282C42.9623 14.303 43.1076 14.9075 43.2483 15.1687C43.3644 15.3843 43.4849 15.567 43.7216 15.6354C43.8325 15.631 43.8922 15.6131 43.9809 15.5418C44.0769 15.4644 43.8138 14.6708 43.84 14.4724C43.8549 14.3602 43.8779 14.2487 43.9682 14.1766L44.0593 14.2113C44.2923 14.4899 44.4752 15.039 44.4927 15.4129C44.5085 15.7504 44.4331 16.1077 44.2114 16.3628C44.0757 16.5205 43.8845 16.6135 43.6819 16.6203C43.4011 16.6289 43.2288 16.4217 43.0416 16.2348C43.0068 16.1873 42.9683 16.1758 42.9164 16.156C42.7811 16.2833 42.6537 16.4372 42.5085 16.5497C42.4048 16.6301 42.2729 16.6975 42.1411 16.6755C41.9999 16.652 41.8737 16.5281 41.7932 16.409C41.6252 16.1603 41.6717 15.8214 41.5891 15.5425C41.5322 15.3503 41.3823 15.1829 41.3533 14.9831C41.3291 14.8165 41.3677 14.6306 41.3931 14.466L41.5138 14.3947C41.7291 14.5634 41.8514 15.1179 41.9562 15.3847C42.0258 15.5619 42.1072 15.7273 42.2849 15.8047C42.3509 15.7923 42.426 15.7784 42.485 15.7433C42.8566 15.522 42.6574 14.926 42.6649 14.5789C42.6682 14.4268 42.7185 14.2724 42.7614 14.1282Z" fill="var(--fill-0, white)"/>
<path id="Vector_20" d="M74.5159 23.037L74.6027 23.0276L74.6586 23.0861C74.655 23.249 74.6357 23.3944 74.5717 23.5445C74.1939 24.4292 71.8478 25.0119 70.9546 25.3738C70.9038 25.3845 70.8596 25.3698 70.8104 25.3573C70.7474 25.1547 70.8271 24.8224 70.9195 24.6358C71.3517 23.7627 73.6247 23.3329 74.5159 23.037Z" fill="var(--fill-0, white)"/>
<path id="Vector_21" d="M33.3119 22.8251C33.3613 22.8441 33.4119 22.8821 33.4581 22.9095C33.512 23.0443 33.5084 23.0676 33.4829 23.2125C33.342 23.4324 33.1207 23.5652 32.9003 23.6852C32.2619 24.0325 31.5307 24.2577 30.8643 24.5464C30.1126 24.8721 29.3747 25.2823 28.6004 25.5418C28.5416 25.5499 28.476 25.539 28.4167 25.5349L28.377 25.438C28.3929 25.2871 28.4102 25.1407 28.4836 25.007C28.5777 24.8357 28.7377 24.686 28.9019 24.5913C29.7017 24.1302 30.6977 23.8594 31.5556 23.5235C32.1374 23.2958 32.7131 22.9934 33.3119 22.8251Z" fill="var(--fill-0, white)"/>
<path id="Vector_22" d="M65.8629 0.454102C65.8832 0.473609 65.9076 0.49653 65.935 0.522867C65.8111 1.6033 65.285 2.76899 65.4272 3.87246C65.4907 4.36166 66.1554 4.56477 66.5103 4.2554C66.8932 3.92152 66.9141 3.46438 67.1588 3.05473L67.1984 3.11558C67.2406 3.67041 67.169 3.86849 67.0354 4.40102C66.8546 4.99781 66.6287 5.98419 65.7832 5.69814C64.3984 5.2293 65.3581 1.33757 65.8629 0.454102Z" fill="var(--fill-0, white)"/>
<path id="Vector_23" d="M24.0322 19.5104C24.4393 19.5898 25.0151 19.783 25.3364 20.0605C25.4853 20.189 25.5838 20.3471 25.601 20.5514C25.6399 21.0118 25.2518 21.5526 24.9847 21.8911C24.4255 21.8934 23.7652 21.3777 23.3485 21.0265C23.4633 20.474 23.7243 19.9686 24.0322 19.5104Z" fill="var(--fill-0, white)"/>
<path id="Vector_24" d="M18.2228 6.71618C18.3632 6.70416 18.6204 6.76677 18.7286 6.86328C19.6165 7.65536 18.2593 8.66402 18.3542 9.25948C18.8612 9.81015 20.65 8.83 20.897 8.89352C20.8383 9.16713 20.4074 9.4277 20.1807 9.58911C19.7305 9.88489 18.2591 10.2768 17.9174 9.74615C17.6852 8.9597 18.8339 8.3536 18.4987 7.7475C18.1538 7.51428 17.7873 7.64658 17.3672 7.71494C17.4849 7.00223 17.5072 6.84583 18.2228 6.71618Z" fill="var(--fill-0, white)"/>
<path id="Vector_25" d="M30.873 9.29367C30.9177 9.30994 30.9611 9.33037 31.0025 9.35458C31.4407 9.61143 31.9524 10.5458 32.0789 11.0638C32.2787 11.8819 32.2514 13.2154 31.8549 13.9535C31.8483 13.9496 31.8417 13.9458 31.8351 13.9419C31.8174 13.946 31.7595 13.8357 31.76 13.8333C31.7763 13.7521 31.7968 13.6345 31.8087 13.5552C31.8758 13.1071 31.8906 12.7987 31.8077 12.3505C31.6503 11.4987 30.8948 11.1682 30.6824 10.4C30.5931 10.0769 30.7084 9.58291 30.873 9.29367Z" fill="var(--fill-0, white)"/>
<path id="Vector_26" d="M61.7536 11.7898C61.9801 12.2843 61.0934 13.9581 61.358 14.779C61.4108 14.9436 61.5185 15.1082 61.6729 15.1836C61.7831 15.2376 61.8714 15.2322 61.9836 15.1915C62.2045 15.0348 62.33 14.4544 62.4183 14.1866L62.4803 14.1795C62.4915 14.1951 62.5016 14.21 62.5107 14.2269C62.6595 14.505 62.4686 15.1983 62.3914 15.498C62.329 15.6946 62.2665 15.8942 62.171 16.0765C62.0857 16.2395 61.9704 16.3736 61.7932 16.4223C61.6459 16.4627 61.4621 16.4283 61.3321 16.3439C61.1503 16.2259 61.0493 16.0154 61.0046 15.8019C60.8014 14.8301 61.2483 12.6287 61.7536 11.7898Z" fill="var(--fill-0, white)"/>
<path id="Vector_27" d="M43.0183 2.80092C43.1991 3.1956 42.1287 4.85793 42.4968 5.57239C43.0457 6.01751 43.5893 5.3199 43.9752 4.94591C43.8575 5.48211 43.742 5.77508 43.5175 6.26685C43.4851 6.32814 43.4515 6.38873 43.4168 6.44863C42.9033 7.32914 41.8967 6.96594 42.0476 5.77577C42.1928 4.63084 42.4166 3.78865 43.0183 2.80092Z" fill="var(--fill-0, white)"/>
<path id="Vector_28" d="M88.908 13.7461L88.977 13.7781C89.1903 14.1225 88.4321 15.5191 88.6718 16.1576C88.7241 16.297 88.7724 16.3257 88.8978 16.3816C89.3289 16.3433 89.5503 15.7983 89.9078 15.5981L89.9622 15.6387C89.9794 16.02 89.7961 16.3173 89.628 16.6402C89.3853 17.027 89.0898 17.367 88.7983 17.7131C88.6038 17.5205 88.4387 17.3255 88.2752 17.1043C88.1285 16.0386 88.3773 14.671 88.908 13.7461Z" fill="var(--fill-0, white)"/>
<path id="Vector_29" d="M61.2736 20.9969L61.3645 21.0846C61.3752 21.555 60.9786 22.2193 60.9156 22.7505C60.8958 22.9198 60.8933 23.1215 61.0014 23.2607C61.0873 23.3703 61.2229 23.4228 61.3544 23.4375C61.88 23.4966 62.1369 22.8123 62.4802 22.525L62.5188 22.6053C62.5315 22.8855 62.4289 23.0946 62.3182 23.3406C62.2024 23.5444 62.0861 23.7507 61.9409 23.9335C61.7748 24.1428 61.5433 24.4047 61.2645 24.4232C61.1375 24.4315 61.0238 24.3821 60.9304 24.2944C60.7074 24.0858 60.6272 23.7208 60.6155 23.4209C60.5891 22.7287 60.8191 21.5179 61.2736 20.9969Z" fill="var(--fill-0, white)"/>
<path id="Vector_30" d="M13.4379 1.52474C13.4711 1.53546 13.5037 1.54834 13.5354 1.5633C14.5035 2.01521 13.6667 4.79826 13.0343 4.4622L13.0077 4.32834C13.3898 3.46932 14.0472 2.92945 12.6083 2.8609C12.6218 2.77503 12.6368 2.68942 12.6533 2.60411C12.7663 2.021 12.9837 1.84039 13.4379 1.52474Z" fill="var(--fill-0, white)"/>
<path id="Vector_31" d="M41.2724 23.2222C41.3381 23.226 41.3844 23.2447 41.4367 23.288C41.6305 23.4484 41.711 23.6822 41.7356 23.9338C41.7767 24.3534 41.6888 24.9065 41.4242 25.2393C41.3279 25.3604 41.2589 25.3938 41.1126 25.4069C41.222 25.1021 41.4625 24.6684 41.332 24.3567C41.1913 24.2231 41.0159 24.1975 40.8361 24.1565L40.7943 24.0685C40.8302 23.7684 41.0749 23.43 41.2724 23.2222Z" fill="var(--fill-0, white)"/>
<path id="Vector_32" d="M45.1081 0.0877511C45.5088 0.539616 45.8976 0.922412 46.1344 1.49052C45.8773 3.18737 46.1588 3.96366 46.4903 5.64098L47.4873 10.6369C47.9265 12.844 48.408 14.6276 47.7731 16.8419C47.5711 17.5464 47.5113 18.2078 46.8181 18.6804C45.3875 19.5846 43.591 19.8722 42.1643 20.8175C41.4314 21.2812 40.8093 21.9375 40.2194 22.5523C39.2394 23.5738 37.8199 26.0598 36.1696 25.7891C34.6784 25.5445 34.5649 22.7947 34.7898 21.6345C35.2152 19.441 36.1108 17.9297 37.3436 16.2054C37.1553 16.0331 37.0065 15.8985 36.836 15.7025C36.6154 15.4489 36.4647 14.8321 36.2246 14.7242C34.732 15.0259 29.7493 21.4689 28.2318 22.9252C26.3488 24.7322 24.2909 27.0795 21.4067 25.2993C20.1759 24.4642 19.4785 22.5458 19.3354 21.0417C18.1849 21.5673 17.3815 22.2919 16.4778 23.1178C15.3364 24.1608 13.4943 27.2633 11.6868 26.4576C9.35939 25.4201 10.568 21.3008 11.1259 19.5143C10.4024 19.5086 9.67103 19.5237 8.98158 19.8553C7.36262 20.634 6.07699 21.8502 4.69714 23.0586C3.54012 24.0718 2.07771 25.4963 0.549484 24.0598C0.252435 23.7807 0.0803984 23.3728 0 22.9618V20.918C0.172231 19.6752 1.02549 17.2388 1.84595 16.3502C1.68972 17.0276 1.29323 17.763 1.04073 18.4543C0.821356 19.0549 0.786962 19.3672 0.680982 19.9958C0.329919 22.0778 1.47574 23.5184 3.47742 22.3718C3.93991 22.1068 5.00088 21.103 5.33894 20.6206C5.17862 19.4663 4.86351 19.0761 4.5621 18.0653C4.3116 17.2252 5.03189 16.7051 4.41352 15.5046C3.79963 14.3129 2.99899 14.7607 2.75613 13.7104C2.55615 12.8456 3.27133 12.6006 3.84415 13.1168C4.43182 13.5784 4.5694 14.22 4.91138 14.8406C5.03928 14.2682 5.06655 13.7176 5.1674 13.1571C5.53973 11.0874 7.58636 12.8365 6.81886 14.3507L6.74979 14.3577C6.47842 14.0636 5.99574 13.0703 5.52139 13.591C5.2745 13.8621 5.28927 15.1122 5.22453 15.5236C5.6065 15.7252 6.37462 16.0808 6.51686 16.5308C6.45917 17.1256 5.31202 17.1638 4.77206 17.6103C5.35559 18.7364 5.42725 19.1189 5.68912 20.3504C6.38148 19.8503 7.05641 19.3367 7.745 18.8332C8.18106 18.5143 8.78287 18.2584 9.18506 17.8962C9.10853 17.3549 9.14225 16.8782 9.27169 16.3682C9.58958 15.1155 10.6266 12.1322 12.2908 13.617C12.7196 13.9996 13.1843 14.3763 13.7737 14.2862C14.4602 14.1803 15.838 13.2561 16.3717 12.8077C15.0921 12.4177 13.6861 12.0926 12.3843 11.7677C11.9745 11.6655 11.1615 11.9627 10.8178 11.7213C10.6989 11.3659 11.007 10.0733 11.4524 9.98248C12.8521 9.69728 14.219 10.2902 15.5532 10.6475C16.2575 10.8309 17.0518 10.9991 17.7133 11.1006C18.4744 11.2149 19.2396 11.2962 20.0072 11.344C20.5656 11.3815 21.2875 11.4008 21.8238 11.5094C21.7298 12.1116 21.5216 12.6952 21.3847 13.287C20.0142 13.2553 19.1532 13.3218 17.8245 13.8232C17.1974 14.0642 16.5896 14.3572 16.007 14.6995C15.2344 15.1438 14.1741 16.0867 13.3 16.0658C11.9622 16.0338 11.504 14.0736 10.1459 15.4873C9.11772 16.6281 12.3899 17.7448 12.9374 18.1815C13.2448 18.4408 12.8597 19.7019 12.7436 20.0412C12.258 19.9306 11.9384 19.8098 11.4762 19.6251C11.005 20.8408 10.6041 22.3491 11.0681 23.6272C11.4263 24.6139 12.3925 24.9946 13.2848 24.5045C14.7191 23.7169 15.5941 21.9753 16.8727 20.9239C17.6457 20.2883 18.3602 19.8068 19.1719 19.2535C19.2667 19.189 19.3848 18.9288 19.4267 18.8173C19.7403 17.7016 19.6975 16.4874 20.5667 15.632C20.3794 16.6975 20.0905 17.7789 19.9229 18.8159C20.6138 18.7031 23.6221 17.5631 24.0871 16.8905C24.2432 16.6648 24.2242 16.2488 24.1742 15.9776C23.8117 14.0433 23.2037 12.181 22.8038 10.2511C22.4774 8.67574 22.181 7.11232 21.913 5.52501C21.766 4.65477 21.8403 3.45853 21.3757 2.76283C21.48 2.20594 21.6764 1.57949 21.9552 1.09022C22.3867 1.38959 22.7641 1.8312 23.1226 2.22605C22.6671 4.28483 22.8043 4.81523 23.2076 6.89808C23.4823 8.35261 23.8026 9.79724 24.1679 11.2297C24.441 12.3239 24.7624 13.4292 24.848 14.561C24.9022 15.2772 24.5928 17.7158 24.281 18.2792C24.0749 18.6515 23.6599 18.9826 23.3135 19.2097C22.229 19.9207 20.8461 20.1066 19.8145 20.8779C20.1705 21.9829 20.9283 23.268 21.9597 23.8019C22.7533 24.2126 23.7827 24.1489 24.6035 23.8545C27.2413 22.9083 31.1702 17.729 33.2833 15.471C34.1235 14.5732 35.068 13.8244 35.9226 12.9552C35.0726 12.2346 33.6652 11.2693 33.5531 10.022C33.5038 9.47299 33.655 8.17391 34.0133 7.72581C34.2291 7.45604 34.6317 7.36342 34.9552 7.3457C37.2555 7.21983 39.626 7.66527 41.8948 8.03096C42.5862 8.14236 43.8303 8.33324 44.4414 8.53647C44.2821 10.5323 44.3098 10.3569 42.6219 11.1884C41.339 11.8205 39.3797 12.479 38.2609 13.3368C38.4109 13.8237 39.0012 16.1129 38.2542 16.52C38.1666 16.5678 37.6786 16.5232 37.5486 16.5075C36.6626 18.067 34.0507 22.4265 36.0537 23.8201C37.6745 24.9478 39.7321 21.107 40.7534 20.2044C41.5185 19.4251 42.6948 18.6772 43.5915 18.3075C44.2286 18.0449 47.2488 17.101 47.3171 16.6402C47.5233 15.249 46.1983 9.68169 45.9143 8.17854C45.4635 5.79292 45.2814 4.9194 44.8168 2.68871C44.7361 2.33009 44.463 2.13152 44.1995 1.8935C44.4485 1.12837 44.56 0.69316 45.1081 0.0877511ZM37.1603 12.0608C38.0658 11.6319 38.9676 11.1946 39.8656 10.7488L41.5432 9.93258C40.3319 9.56348 35.8815 9.0467 34.5692 9.16741C34.4415 9.21061 34.3138 9.23354 34.2492 9.35371C34.4263 9.86368 36.6124 11.7278 37.1603 12.0608Z" fill="var(--fill-0, white)"/>
<path id="Vector_33" d="M76.2917 9.3006e-05H76.5868C76.7046 0.0442011 76.8173 0.10248 76.9225 0.17376C77.738 0.717242 77.5273 1.66711 77.0824 2.38134C77.0265 2.22006 76.8417 1.65703 76.7457 1.57781C75.5407 0.584111 75.6783 2.96652 75.6529 3.59035C76.6213 4.2213 77.0128 4.29438 76.5192 5.49378L75.8616 5.43005C75.5178 5.39999 75.0892 5.56528 75.1324 6.00205C75.2578 7.2758 75.85 8.54046 76.051 9.8023C76.1318 10.31 76.2151 12.9166 75.853 13.2545C75.6697 12.9893 75.8433 12.4409 75.853 12.1046C75.9134 10.0296 74.7297 8.19546 74.7125 6.15436C74.7104 5.89613 74.9425 5.406 74.8795 5.17145L74.7328 5.13802C74.4646 4.74711 75.2751 3.10109 73.4363 2.04088C73.0986 2.06191 72.8589 2.10063 72.5253 2.15773C72.5695 1.5306 72.5989 0.924113 72.7548 0.31611C74.5769 0.300994 74.4829 1.77397 75.3645 3.05193C75.6016 2.01777 75.3208 0.549909 76.2917 9.3006e-05Z" fill="var(--fill-0, white)"/>
<path id="Vector_34" d="M103.019 24.6558C102.593 24.4362 102.097 24.2003 101.708 23.9207C101.558 23.8061 101.487 23.7335 101.438 23.5516C101.338 23.1774 101.947 21.9033 102.317 21.8989C102.747 21.8938 103.643 22.6435 103.999 22.9492V23.1362C103.732 23.8442 103.54 24.1322 103.019 24.6558Z" fill="var(--fill-0, white)"/>
<path id="Vector_35" d="M4.3565 24.814C4.94773 24.9595 6.19928 25.2206 5.94208 26.0996C5.85945 26.3819 5.55979 27.0104 5.38084 27.2388H5.14303C4.5647 26.963 4.07804 26.7596 3.57645 26.3432C3.73781 25.8054 3.97498 25.2239 4.3565 24.814Z" fill="var(--fill-0, white)"/>
<path id="Vector_36" d="M60.6123 9.3006e-05H60.6951C61.2303 0.460059 61.6878 1.39017 61.9255 2.06858C62.0367 2.38586 62.2134 3.6996 61.8356 3.8193C61.7407 3.53483 61.6853 3.37495 61.5218 3.11496C60.5585 1.58221 59.9826 1.91264 60.6123 9.3006e-05Z" fill="var(--fill-0, white)"/>
</g>
<defs>
<clipPath id="clip0_0_75">
<rect width="104" height="27.2381" fill="white"/>
</clipPath>
</defs>
</svg>
