<svg preserveAspectRatio="none" width="100%" height="100%" overflow="visible" style="display: block;" viewBox="0 0 223.844 116" fill="none" xmlns="http://www.w3.org/2000/svg">
<g id="image 339 [Vectorized]">
<path id="Vector" d="M108.613 44.0975C108.298 42.0058 108.74 35.4097 109.124 33.3041C109.388 31.8091 109.809 30.3461 110.379 28.9392C111.28 26.764 112.603 25.0093 114.846 24.113C117.838 22.9173 122.038 23.4525 124.559 25.5031C125.122 25.9602 126.459 27.5494 126.946 27.6962C128.241 28.0866 130.124 28.1537 131.498 28.6314C132.284 28.9043 132.88 29.5366 133.673 29.8672C133.834 29.6786 134.113 28.9495 134.193 28.7015C136.1 22.6977 143.351 22.1183 147.851 25.5897C148.351 25.9753 149.26 27.3072 149.725 27.4997C150.482 27.8141 152.075 27.5502 152.925 27.6954C154.936 27.9669 156.177 28.696 157.41 30.2443C158.138 29.8726 158.706 29.6634 159.472 29.3765C160.606 29.5817 160.779 28.9102 161.47 29.0123L161.539 29.2764C160.756 29.6947 160.101 29.9935 159.31 30.4575C164.348 29.9659 169.82 32.8729 172.613 36.933C172.957 37.4339 174.08 39.4308 174.351 39.5947C174.742 39.3655 174.785 39.0533 175.057 38.6625C179.22 32.6678 188.326 30.777 194.457 34.7506C197.421 36.6715 200.273 40.7292 200.813 44.3285C201.451 48.5713 200.732 53.1236 198.207 56.7237C199.184 53.0466 200.511 51.0965 200.044 47.0169C199.642 43.404 197.811 40.1023 194.959 37.8489C190.374 34.2329 184.278 33.966 179.238 36.6736C176.999 37.8769 175.972 39.3223 174.43 41.2801C171.976 34.5519 165.646 31.3695 158.736 32.6262C159.204 36.5 159.676 39.9848 159.348 43.9505C158.551 44.1553 155.035 44.6669 155.009 43.2999C154.949 39.9958 155.58 36.2913 154.033 33.2175C153.593 32.3438 152.75 31.9353 151.918 31.5482C152.707 34.4549 153.08 36.6624 152.02 39.5779C150.709 43.1799 146.574 45.2009 142.958 43.8504C139.046 42.3896 138.444 37.7105 139.769 34.241C140.777 31.6067 142.856 29.8978 145.379 28.7874C142.797 26.7949 139.986 26.9057 138.342 30.0522C136.151 34.2454 137.332 39.4253 137.095 43.9531C135.575 44.0557 133.832 44.0456 132.291 44.0661C131.862 41.107 132.89 36.9083 131.731 34.0857C131.186 32.7603 130.139 32.3148 128.915 31.8865C129.419 33.8963 129.616 35.5789 129.3 37.6745C128.706 41.6114 124.992 44.9554 120.878 44.1696C116.44 43.3224 115.361 39.0742 116.179 35.1392C115.119 34.8987 114.692 34.8328 113.682 34.413C113.231 36.7848 113.765 42.4835 113.194 43.7287C112.725 44.0625 109.542 44.0481 108.613 44.0975ZM124.048 32.0436C122.706 32.5266 121.597 33.1501 120.96 34.5182C120.244 36.0567 119.898 38.6657 121.953 39.3185C124.2 39.5284 125.123 38.4095 125.43 36.1694C125.557 35.241 125.308 32.5417 124.489 32.0383L124.048 32.0436ZM113.631 34.0379C114.521 34.0755 115.484 34.3315 116.36 34.5345C116.54 34.1954 116.735 33.8445 116.908 33.5036C117.919 31.3604 120.039 29.665 122.198 28.7752C120.706 27.8922 119.594 27.3926 117.782 27.548C114.947 28.2134 114.257 31.6291 113.631 34.0379ZM145.001 39.5256C149.504 40.2177 149.096 33.3544 147.769 32.3999L147.5 32.4256C145.856 33.0722 144.548 33.9331 143.792 35.6193C143.081 37.2049 143.219 38.8299 145.001 39.5256Z" fill="var(--fill-0, #FBFAFC)"/>
<path id="Vector_2" d="M119.493 50.9706C121.365 50.9648 123.542 51.4773 125.216 52.3201C125.675 52.5519 126.098 52.9804 126.48 53.0696C127.129 51.4854 127.813 49.6044 129.134 48.5036C130.844 47.0782 133.214 46.4546 135.415 46.7021C138.949 47.0996 140.545 48.5337 142.669 51.0987C151.041 49.4159 152.348 57.2536 152.232 63.61C152.21 64.7886 152.365 65.9876 151.973 67.1369C151.561 67.4859 148.584 67.3176 147.812 67.3028C147.729 64.3677 148.082 60.9947 147.492 58.0999C147.131 56.3314 146.185 55.6194 144.786 54.7563C145.351 58.0457 146.028 60.485 144.424 63.6937C141.999 68.5429 133.863 69.0462 132.221 63.2617C131.039 59.102 133.181 54.4636 137.053 52.5421C137.39 52.3755 137.842 52.2716 138.022 51.9386C137.756 50.8537 134.703 50.7309 133.765 50.8042C128.25 52.8388 130.38 62.8959 129.8 67.1477C128.618 67.3478 126.329 67.273 125.068 67.2628C124.826 64.2776 125.436 61.0809 124.788 58.1404C124.393 56.3475 123.334 55.6979 121.736 55.1317C122.633 59.5894 122.461 64.9759 117.405 66.9423C110.869 69.4844 106.816 62.8386 109.518 57.1466C110.694 54.6672 112.458 53.0082 115.049 51.9824C114.693 51.753 114.324 51.5439 113.943 51.3563C106.671 47.8404 106.155 58.41 106.161 62.9177C106.162 63.8238 106.359 66.3025 106.027 67.0194C105.449 67.4138 102.278 67.298 101.329 67.3043C101.307 67.1457 101.289 66.9867 101.274 66.8273C101.153 65.5491 101.289 63.9237 101.332 62.6063C101.469 58.4153 101.954 52.9165 104.7 49.5483C106.177 47.7353 108.189 46.9301 110.489 46.7184C114.322 46.2031 117.127 48.2912 119.493 50.9706ZM113.882 62.1667L114.916 62.5044C115.523 62.523 115.896 62.5493 116.484 62.3181C118.797 61.4082 118.597 56.9484 117.356 55.2293C117.096 55.1281 117.177 55.1181 116.936 55.1649C114.089 56.4896 112.207 58.6534 113.748 61.8905C113.791 61.9829 113.836 62.075 113.882 62.1667ZM136.103 60.5092C136.492 61.5936 136.548 62.0768 137.584 62.6142C142.605 63.5116 141.826 56.0177 140.463 55.6169C137.954 56.4997 136.546 57.7739 136.103 60.5092Z" fill="var(--fill-0, #FBFAFC)"/>
<path id="Vector_3" d="M23.2163 49.7749L23.499 49.7596C25.6011 49.6543 30.6375 50.4013 32.1116 51.7387C31.5551 51.8008 30.0858 51.3125 29.4571 51.2138C18.184 49.4438 9.79436 61.6098 15.4051 71.5417C19.11 78.4159 26.3628 80.8048 33.6589 81.8814C40.5726 82.9016 46.9916 83.9907 53.7901 85.9669C53.0304 79.0612 60.2091 76.9401 65.787 76.7259C67.3691 76.6652 69.0325 76.8226 70.6034 77.009C69.3651 75.0919 68.1604 74.2222 65.7977 74.2632C63.5178 74.3028 62.3013 75.2856 60.8144 76.8338C59.5977 76.1061 58.1797 75.4902 57.1083 74.6081C58.9417 72.754 60.1679 71.2853 62.8677 70.5005C64.91 69.9067 68.1956 70.0359 70.0522 71.088C70.352 71.2545 70.6473 71.4296 70.9373 71.6128C73.5057 73.2361 74.3979 75.6965 75.0345 78.529C79.5031 81.1626 80.7619 83.3481 80.6465 88.6663C80.6341 89.2337 80.6688 89.7906 80.2758 90.2486C79.7408 90.5736 76.9477 90.4021 76.1772 90.3842C75.9106 87.4061 76.4905 85.6609 74.9357 83.0251C74.4838 84.7051 73.7292 86.5278 72.507 87.7844C69.7385 90.631 65.9302 90.9958 63.0276 88.1588C62.0276 89.2338 60.5912 90.2256 59.1127 90.3605C57.6829 90.491 55.7487 89.191 54.4905 88.5888C49.9008 86.3919 45.1402 84.8177 40.1602 83.7752C32.4452 82.148 23.7306 81.3815 17.1325 76.6909C13.8442 74.3532 10.9893 69.8377 10.472 65.8177C9.95248 62.0566 10.9699 58.2448 13.2947 55.243C15.8292 51.9748 19.1317 50.2793 23.2163 49.7749ZM60.7965 83.1326C62.2561 82.9327 62.9982 82.6506 64.5075 82.6942C64.7007 83.5787 65.1521 85.1798 66.0297 85.5516C69.0978 86.8516 70.3253 83.2118 70.8541 81.2573C69.0525 80.812 67.0575 80.5367 65.1981 80.6993C63.1409 80.889 58.3358 81.2417 58.3558 84.2679C58.3621 85.2263 59.6752 86.2003 60.426 85.1463C60.541 84.5863 60.658 83.6117 60.7965 83.1326Z" fill="var(--fill-0, #FBFAFC)"/>
<path id="Vector_4" d="M147.915 75.4808C149.03 72.6919 150.919 71.4218 153.79 70.8073C157.957 69.9156 161.21 72.0063 161.964 76.2806C162.589 79.833 162.486 83.7329 162.274 87.3358C162.237 87.9756 162.258 89.7227 161.905 90.2086C161.173 90.5693 158.414 90.4629 157.399 90.5024C156.885 85.4858 158.426 79.7131 156.282 75.0867C155.886 74.231 154.23 74.1648 153.706 74.7571C150.468 78.423 152.286 85.8102 151.605 90.3767C150.411 90.5596 148.422 90.4789 147.152 90.4507C146.905 88.8961 146.981 85.3581 146.99 83.687C146.987 83.586 146.982 83.4852 146.974 83.3845C146.846 81.7631 146.607 78.794 144.52 79.0797C140.844 79.5828 143.695 88.5048 142.301 90.1897C141.631 90.566 139.476 90.4433 138.614 90.4372C138.322 87.5248 138.737 84.4653 138.444 81.5072C138.143 78.5906 137.495 74.333 133.673 74.5105C132.152 74.5811 128.593 76.2293 128.795 78.0274L128.953 78.1468C129.301 78.0714 129.653 77.9742 129.996 77.9181C135.544 77.0238 138.469 83.7895 135.035 87.8174C132.923 90.295 129.088 90.7174 126.563 88.6045C124.914 87.1869 124.173 84.9656 124.078 82.8394C123.768 75.8878 127.072 71.0739 134.167 70.623C137.926 70.6549 140.901 72.0555 142.075 75.8483C144.455 74.5563 145.37 74.3969 147.915 75.4808ZM128.914 82.1949C128.03 84.1778 128.227 85.5844 130.407 86.282C132.032 85.9312 132.43 84.9976 132.123 83.3136C131.961 82.4198 131.252 81.7357 130.339 81.5802C129.684 81.7197 129.474 81.8244 128.914 82.1949Z" fill="var(--fill-0, #FBFAFC)"/>
<path id="Vector_5" d="M51.9526 26.3258C56.0101 16.6296 69.0207 13.9423 76.0759 21.9357C76.512 22.4297 77.379 23.3723 77.8731 23.7723C81.0132 23.4889 83.7622 23.7228 86.3109 25.7987C88.1418 27.2898 89.238 29.6952 89.4316 32.0302C89.4352 32.0741 89.4384 32.1181 89.4412 32.1622C94.2483 34.5509 95.2478 37.2176 95.2406 42.453C95.2373 44.8429 93.752 43.6739 92.1189 43.9143C91.7633 43.9648 91.1853 43.9675 90.8381 43.8635C90.2365 43.0774 90.9687 37.3806 89.5163 37.0473C89.1851 37.4242 88.7601 38.7372 88.4675 39.2908C87.3055 41.4889 85.035 43.5581 82.4544 43.7226C80.3483 43.8569 79.1145 42.9928 77.5259 41.9327C76.2952 43.0662 74.9214 43.9494 73.161 43.895C71.8109 43.8452 70.537 43.2574 69.6228 42.2625C68.761 41.3185 68.0375 39.4626 68.161 38.2411C68.8912 31.0152 78.1969 29.6875 83.9289 30.4335C84.2213 30.4715 84.5565 30.5019 84.8332 30.4007C85.0892 29.1692 82.5474 28.0734 81.5911 27.9301C79.9281 27.6811 78.2519 28.0233 76.8581 28.9713C76.3593 29.1791 75.7223 30.367 75.1651 30.2002C74.6035 30.0324 72.2347 28.7262 71.9664 28.4197C71.221 27.5683 75.4892 24.9289 75.8358 24.7239C73.9176 22.405 71.6978 20.4975 68.7877 19.6312C61.7763 17.5439 55.6733 20.4833 52.1833 26.6324L51.9526 26.3258ZM79.1905 37.2849C79.8459 38.7677 80.8519 40.0496 82.6871 39.2047C84.4495 38.3933 84.9045 36.5068 85.3478 34.7848C82.302 34.1451 81.6828 34.1606 78.5068 34.2439C76.698 34.6446 72.5317 35.2923 72.8951 37.8982C72.9768 38.4839 73.4594 39.2687 74.117 39.3286C75.422 38.8038 75.0399 36.8849 76.1076 36.483C76.8376 36.2085 78.796 35.994 79.1105 36.999C79.1397 37.0936 79.1663 37.1889 79.1905 37.2849Z" fill="var(--fill-0, #FBFAFC)"/>
<path id="Vector_6" d="M48.0563 46.825C50.3551 46.8671 52.0915 47.2497 54.0469 48.5444C56.624 50.2508 57.2596 52.5393 57.826 55.4106C59.5792 56.2635 60.4078 56.6895 61.6708 58.2335C63.4399 60.3961 63.867 64.4494 63.4677 67.1371C61.8624 67.2803 60.6612 67.2776 59.065 67.149C58.7534 64.365 59.3902 62.2071 57.7589 59.8364C56.7505 63.389 54.8838 66.3884 50.7699 66.9025C48.8673 67.1402 47.2775 66.2307 45.8561 65.0414C45.377 65.5324 45.2074 65.6859 44.6447 66.0919C40.4623 69.1115 35.5527 65.0618 36.7044 60.2514C38.2221 53.9127 48.1098 52.7312 53.3176 53.7534C51.3072 49.8392 46.0525 50.4507 43.7056 53.5872C42.9183 53.1665 40.4113 52.0162 40.1682 51.4594C40.3996 50.1871 44.115 47.824 45.3697 47.3496C45.9051 47.1472 47.4233 46.9002 48.0563 46.825ZM43.7888 59.8965C45.1381 59.6217 45.8357 59.4391 47.2188 59.4899C47.4523 60.3349 47.7831 61.15 48.2045 61.9186C49.2843 62.5643 49.6937 62.5843 50.9589 62.5202C52.0806 61.8961 54.0522 59.3604 53.5553 58.0849C52.8029 57.513 48.8282 57.357 47.8113 57.4909C46.272 57.6162 44.8966 57.7367 43.448 58.3681C42.3329 58.8222 41.1065 59.6764 41.252 61.0369C41.3281 61.7493 41.9576 62.528 42.7319 62.3852C43.4223 62.2579 43.4813 61.3911 43.6012 60.8437C43.6703 60.5275 43.728 60.2104 43.7888 59.8965Z" fill="var(--fill-0, #FBFAFC)"/>
<path id="Vector_7" d="M105.609 70.5293C105.74 70.5579 105.832 70.5457 105.914 70.6614C106.118 70.9484 106.056 88.7824 105.863 90.0951C105.044 90.9391 86.1493 90.2438 83.4955 90.5021C83.3064 90.5205 82.6092 90.5311 82.3688 90.543C82.321 90.3459 82.2827 90.1466 82.2539 89.9459C82.1266 89.0351 82.1468 86.6651 82.1621 85.6837C82.2318 81.8098 82.0803 77.7153 84.4478 74.4201C87.7163 69.8711 97.5376 70.9468 98.2957 77.0231C98.5159 78.3875 99.035 82.9942 98.3071 84.1079C97.4385 84.5582 89.8835 84.2896 88.3957 84.252C88.2154 82.6675 88.2638 81.9436 88.4316 80.3439C90.039 80.4837 92.215 80.4217 93.8486 80.4134C93.6741 79.1095 93.7789 78.3054 93.3758 77.0137C91.9887 75.7683 90.2557 75.4925 88.7276 76.6712C85.8665 78.8781 87.1511 83.353 86.6223 86.3744L86.6112 86.4356C91.261 86.3218 95.9934 86.6463 100.773 86.4148C100.611 85.0083 100.781 80.9763 100.79 79.3316C100.799 77.6554 100.652 72.0934 100.978 70.7803C101.477 70.4896 104.649 70.6095 105.609 70.5293Z" fill="var(--fill-0, #FBFAFC)"/>
<path id="Vector_8" d="M87.2977 46.4785C88.3616 46.3707 89.1737 46.379 90.236 46.4762C101.022 47.4631 100.424 59.187 99.3858 67.2739C98.0837 67.3932 95.8413 67.3152 94.494 67.3051C94.4202 66.1379 94.782 64.6659 94.8752 63.47C95.1168 60.1787 95.8967 55.6252 93.6217 52.8901C91.1454 49.913 86.1794 49.9116 83.2573 52.301C82.8966 52.5976 82.3673 52.9376 82.3562 53.4281C82.7459 53.6041 83.878 53.3617 84.3641 53.3478C90.2913 53.1786 92.4351 59.8137 89.6882 64.2601C87.7549 67.3897 83.0819 68.1943 80.1557 66.1685C75.7789 63.1384 76.0401 55.2321 78.7791 51.2018C80.9178 48.0362 83.7808 47.15 87.2977 46.4785ZM81.6744 58.923C81.0696 61.4076 81.587 63.3768 84.5311 63.2164C86.0282 62.6587 86.6964 61.0749 86.1471 59.5958C85.8676 58.8416 85.298 58.2305 84.5653 57.8987C84.165 57.7166 83.8316 57.6791 83.3967 57.6481C82.6036 58.0299 82.2675 58.2252 81.6744 58.923Z" fill="var(--fill-0, #FBFAFC)"/>
<path id="Vector_9" d="M107.029 72.1522C108.138 72.4076 110.155 72.3 111.282 72.1527C111.105 78.3054 111.018 84.6479 112.147 90.7033C112.377 89.2405 112.027 87.5063 112.319 86.193C112.442 85.6397 115.928 86.0691 117.116 84.6674C118.607 82.9087 118.689 80.154 117.129 78.4768C115.895 77.1509 113.917 76.7097 112.196 76.6927C112.199 75.2048 112.245 73.7173 112.332 72.2319C118.533 72.2888 123.016 75.9547 122.587 82.4715C122.463 84.3315 122.095 85.6763 120.965 87.1893C119.707 89.0816 113.992 91.3639 112.216 90.3107C111.843 90.8688 112.984 96.3452 111.201 98.6231C108.596 101.951 104.581 102.435 101.077 100.07C99.9765 99.3266 99.4908 97.8354 99.2182 96.5838C99.8706 96.3956 100.288 96.3006 100.924 96.1993C103.692 95.7583 103.274 96.6267 104.66 97.6146C104.995 97.8542 105.411 97.9497 105.816 97.8799C107.028 97.6698 107.418 97.09 107.82 95.9347C109.008 92.5163 105.499 74.349 107.029 72.1522Z" fill="var(--fill-0, #FBFAFC)"/>
<path id="Vector_10" d="M174.777 47.5103C178.091 47.3772 181.643 49.2715 183.215 52.2851C185.519 56.2119 185.091 64.6361 180.37 66.6458C172.165 70.1377 169.539 60.6273 173.161 55.0066C173.849 53.9397 174.113 53.749 175.174 53.2419C176.563 53.984 177.176 54.3787 178.387 55.3795C176.691 57.285 175.18 59.8458 176.305 62.4732C178.76 64.0074 180.018 60.1447 180.049 58.2838C180.136 55.2661 178.958 51.3459 175.352 51.2044C171.503 51.0534 170.712 55.4101 170.345 58.3396C170.037 60.8015 170.111 63.2786 170.094 65.7569C170.09 66.295 170.102 66.7473 169.7 67.1246C169.09 67.3411 166.36 67.371 165.746 67.1596C165.65 66.8521 165.584 66.5364 165.549 66.2163C165.063 62.0397 165.621 53.7769 168.468 50.5363C170.344 48.3998 172.083 47.802 174.777 47.5103Z" fill="var(--fill-0, #FBFAFC)"/>
<path id="Vector_11" d="M188.692 47.2928C189.46 47.2998 190.381 47.2479 191.16 47.2248C189.675 52.0065 189.476 63.0369 191.027 67.8106C191.259 67.9296 191.5 68.0668 191.731 68.1873C196.534 70.6897 196.503 78.0849 190.804 79.4378C190.401 79.5337 189.941 79.5869 189.523 79.6503C187.269 79.5894 185.034 78.663 183.764 76.7194C182.884 75.3416 182.589 73.6692 182.946 72.0734C183.601 69.1807 185.281 68.808 187.229 67.593C186.435 65.2562 186.195 62.2037 186.041 59.743C185.907 57.6154 185.866 48.9511 187.162 47.5342C187.429 47.2427 188.312 47.3045 188.692 47.2928ZM189.528 75.6257C191.252 74.9137 191.239 71.5988 188.589 71.7166C187.435 72.4205 187.112 73.7772 187.888 74.9129C188.297 75.5107 188.862 75.5328 189.528 75.6257Z" fill="var(--fill-0, #FBFAFC)"/>
<path id="Vector_12" d="M100.875 26.3515C101.576 23.8599 102.557 22.276 105.213 21.4671C106.283 21.141 108.25 21.2824 109.229 21.8381L109.246 21.9887C108.271 22.7701 103.899 19.5688 102.173 26.8054C105.384 28.9192 107.181 31.09 107.169 35.1124C107.15 41.1769 103.272 43.7575 97.5853 44.1222C97.2288 44.1451 96.9994 44.0171 96.767 43.774C96.6312 43.3357 96.683 40.4451 96.8318 39.9419C97.5028 39.0274 102.208 39.7357 102.584 36.2457C102.897 33.3408 102.227 31.5438 99.1291 30.6332C98.4642 30.4378 97.6949 30.3992 97.1134 30.0681C96.6473 29.5532 96.7113 26.4543 97.2358 25.9309C98.1781 25.6119 99.9247 26.0601 100.875 26.3515Z" fill="var(--fill-0, #FBFAFC)"/>
<path id="Vector_13" d="M196.122 63.9855C200.731 62.7642 204.538 62.5047 208.813 65.038C215.549 69.0287 217.973 77.5546 213.897 84.3512C209.6 91.5158 202.052 94.1088 194.217 95.4597C194.274 95.2361 194.198 95.1228 194.129 94.8745C200.692 93.3758 205.202 92.5408 209.635 86.593C212.035 83.3754 212.851 79.5737 212.208 75.6341C211.639 72.1931 209.742 69.1134 206.923 67.059C203.983 64.9517 200.448 63.9086 196.849 64.5129C196.788 64.4583 196.304 64.1371 196.122 63.9855Z" fill="var(--fill-0, #F8F6F8)"/>
<path id="Vector_14" d="M154.33 48.9143C158.664 49.3883 162.587 51.0652 163.749 55.5749C165.289 61.5524 162.888 65.4009 157.171 67.0473C156.018 67.3523 155.064 67.2968 153.886 67.2989C153.756 66.4391 153.619 63.8911 153.978 63.0806C154.245 62.4785 156.201 62.6154 157.001 62.2928C157.925 61.9723 158.953 61.3683 159.347 60.4086C160.521 57.5549 159.245 54.4945 156.112 53.8229C155.49 53.6898 154.613 53.5364 154.092 53.2849C153.903 53.1005 153.702 52.7544 153.74 52.4908C153.905 51.3336 153.522 49.8037 154.33 48.9143Z" fill="var(--fill-0, #FBFAFC)"/>
<path id="Vector_15" d="M65.4774 49.0539C67.5101 48.9969 69.5294 49.5763 71.3127 50.6399C76.0709 53.4776 76.8616 61.1255 72.8725 64.9079C71.6887 66.0304 69.93 66.642 68.3334 66.9829C67.0308 67.3231 66.3797 67.2967 65.0337 67.303C64.9744 66.1293 65.0059 64.9363 65.0007 63.7619C64.9958 62.6365 65.5857 62.6715 66.5392 62.6226C69.014 62.4956 70.9442 61.1981 70.9857 58.5551C71.0422 54.9415 68.3578 53.534 65.1142 53.5297C65.0245 52.5204 64.8135 49.7429 65.4774 49.0539Z" fill="var(--fill-0, #FBFAFC)"/>
<path id="Vector_16" d="M168.953 78.4436C171.895 78.5456 173.774 80.8614 174.05 83.6225C174.412 87.2697 172.947 90.0178 169.105 90.5223C162.199 90.2149 161.488 78.9042 168.953 78.4436ZM169.396 86.9049C170.066 86.5415 170.306 86.2746 170.463 85.5235C170.814 83.8508 170.443 82.026 168.484 82.0201C166.941 83.0655 166.919 86.4909 168.955 86.8393C169.102 86.8639 169.249 86.8857 169.396 86.9049Z" fill="var(--fill-0, #FBFAFC)"/>
<path id="Vector_17" d="M86.491 97.1399C89.2527 96.1291 91.4912 97.2773 91.5935 100.441C91.6586 102.457 90.0197 104.363 88.6259 105.698C87.9903 106.375 86.3403 107.581 85.5094 107.954C83.5485 106.879 80.9707 104.562 80.0278 102.475C78.9812 100.16 79.4426 97.8556 81.914 96.7678C83.8206 96.6291 84.0819 97.0332 85.7262 98.0472L86.491 97.1399Z" fill="var(--fill-0, #F12D2B)"/>
<path id="Vector_18" d="M39.1897 17.731C42.244 15.2435 45.5217 16.7374 45.3325 20.7047C45.135 21.2724 44.9305 21.8377 44.7191 22.4003C43.4932 24.1554 41.1547 26.9213 39.1935 27.7746C37.6347 26.7798 36.2312 25.3796 34.98 24.0212C34.5921 23.6001 34.3656 23.1347 33.9864 22.7521C33.6314 22.0059 33.3875 21.5085 33.21 20.6977C33.2034 19.3053 33.2244 18.4191 34.2484 17.3332C35.6432 15.8544 37.8465 16.5949 39.1897 17.731Z" fill="var(--fill-0, #F12D2B)" fill-opacity="0.87451"/>
<path id="Vector_19" d="M180.873 92.453C182.573 91.0756 183.868 92.9498 185.434 92.9137C185.946 92.9019 187.234 91.7933 188.081 91.8358C188.777 91.8708 189.296 91.9251 189.834 92.427L189.287 92.327L189.163 92.4869L189.226 92.5185C188.978 92.9293 189.129 94.056 189.181 94.5571C188.484 95.8762 188.508 98.7314 186.947 99.7423L186.864 99.4399C185.532 102.279 185.974 100.391 184.637 101.24C184.165 101.174 180.858 98.0582 180.489 97.3569C180.057 96.5361 180.541 93.9514 180.967 93.0494C181.101 92.7624 181.004 92.6752 180.873 92.453Z" fill="var(--fill-0, #F12D2B)" fill-opacity="0.678431"/>
<path id="Vector_20" d="M153.356 14.6462C153.987 14.6562 154.73 14.7163 155.369 14.7534C155.584 16.5537 155.572 18.2555 158.067 18.5194C159.984 18.7219 160.062 15.9086 160.725 14.8646C160.955 14.504 162.956 14.724 163.394 14.7833C164.281 15.5198 163.506 17.9478 163.098 18.8919C161.894 22.0687 156.544 22.8521 154.08 20.8131C152.567 19.5613 152.019 18.1757 152.025 16.2179C152.029 14.9482 152.057 14.7764 153.356 14.6462Z" fill="var(--fill-0, #FBFAFC)"/>
<path id="Vector_21" d="M46.3483 36.5154C49.9498 35.9004 55.4325 38.546 57.9133 41.1011L57.9 41.3311C54.5301 38.8346 52.0115 37.4005 47.7215 37.5381C44.0951 37.6603 40.6684 39.2292 38.2064 41.8948C35.7988 44.3404 34.8213 46.861 34.4522 50.2901C34.3761 50.9972 34.6648 52.2165 34.3139 52.6973C33.6143 52.6854 33.026 52.3564 32.987 51.599C32.6769 45.5586 36.0659 40.1654 41.5673 37.6952C43.1936 36.965 44.6137 36.771 46.3483 36.5154Z" fill="var(--fill-0, #ECE7EE)"/>
<path id="Vector_22" d="M166.486 11.0874C171.374 7.53014 178.875 11.9881 177.689 18.1506C176.832 22.603 173.432 25.0027 169.391 26.4969C166.777 27.4675 164.165 28.3634 161.538 29.2759L161.468 29.0118C160.777 28.9097 160.605 29.5811 159.471 29.376C161.322 28.636 163.289 27.9815 165.174 27.3911C168.851 26.239 174.017 24.6438 175.657 20.7561C176.422 18.9452 176.556 16.9224 175.81 15.0646C175.102 13.2964 173.713 11.8873 171.955 11.155C169.969 10.3231 168.498 10.7207 166.486 11.0874Z" fill="var(--fill-0, #FBFAFC)"/>
<path id="Vector_23" d="M25.3574 37.1064C23.8565 30.6417 26.8304 24.8728 31.9469 21.092C32.379 20.7727 32.6744 20.6158 33.2084 20.6971C33.3859 21.5079 33.6298 22.0053 33.9848 22.7515C33.5227 23.1843 32.9973 23.3883 32.4522 23.6819C27.5136 26.341 25.1758 32.6773 26.2069 38.0389C26.3385 38.7236 26.693 39.541 26.7868 40.2402C25.9915 39.7351 25.9726 37.7465 25.3574 37.1064Z" fill="var(--fill-0, #FBFAFC)"/>
<path id="Vector_24" d="M180.205 98.5102C179.764 98.8088 177.197 99.4904 176.494 99.7474C174.949 100.311 173.569 101.08 172.062 101.684C171.823 101.467 171.81 100.436 171.77 100.027C171.811 99.9355 171.905 99.6823 171.963 99.6489C173.171 98.9453 178.467 97.4105 179.685 97.4924C179.835 97.767 180.105 98.2336 180.205 98.5102Z" fill="var(--fill-0, #FBFAFC)"/>
<path id="Vector_25" d="M189.178 94.5558C189.296 95.2268 189.228 96.1484 189.39 96.446C189.795 96.5588 189.913 96.4356 190.117 96.4997L190.153 96.7168C190.795 96.4811 190.797 96.1052 191.345 95.576L191.463 96.1055L191.429 96.1661C190.269 98.2669 189.957 99.8838 187.514 101.519C187.387 101.429 187.369 101.385 187.27 101.264C187.291 100.98 187.305 100.924 187.403 100.653L187.428 100.586C186.582 100.817 186.565 102.661 184.634 101.238C185.971 100.389 185.529 102.278 186.861 99.4387L186.944 99.741C188.505 98.7301 188.481 95.875 189.178 94.5558Z" fill="var(--fill-0, #F63A3B)" fill-opacity="0.890196"/>
<path id="Vector_26" d="M45.3293 20.7055C47.7711 21.6304 49.4171 23.3742 51.0198 25.359C51.252 25.6465 51.6345 26.1992 51.9517 26.3269L52.1823 26.6335C52.0602 27.019 52.0406 27.13 51.7892 27.4528C51.2347 27.5626 51.016 26.913 50.5981 26.449C48.7848 24.4355 47.1511 23.4179 44.7159 22.4011C44.9273 21.8384 45.1318 21.2732 45.3293 20.7055Z" fill="var(--fill-0, #FBFAFC)"/>
<path id="Vector_27" d="M20.0885 61.863C20.3594 61.8096 21.3201 61.863 21.6664 61.859C22.4804 61.8481 23.2935 61.8003 24.1033 61.7155C23.7424 62.0038 23.6835 61.9391 23.626 62.4633C23.5216 63.4167 23.78 64.3962 23.6473 65.342C23.6472 65.3429 23.8009 65.5479 23.8135 65.559C23.8521 65.5965 23.8906 65.634 23.9293 65.6716C23.3142 66.2155 22.7743 66.846 21.9732 66.9117C22.3905 66.6998 22.6547 66.595 22.7016 66.0989C22.3928 65.665 21.4953 65.4427 21.0116 65.0839C20.0825 64.3949 20.7192 63.3436 20.574 62.3996C20.5218 62.0603 20.4259 62.0903 20.0885 61.863Z" fill="var(--fill-0, #F12D2B)" fill-opacity="0.721569"/>
<path id="Vector_28" d="M179.807 93.4381C180.089 93.0594 180.502 92.7542 180.871 92.4529C181.002 92.6752 181.1 92.7623 180.965 93.0493C180.539 93.9513 180.055 96.536 180.487 97.3569C180.856 98.0582 184.163 101.174 184.635 101.24C186.566 102.662 186.583 100.818 187.429 100.587L187.404 100.654C187.307 100.926 187.292 100.981 187.271 101.266C187.37 101.386 187.388 101.43 187.515 101.52C187.165 101.924 185.903 102.888 185.431 103.214C183.777 101.881 182.085 100.742 180.759 99.0372C180.547 98.7644 180.536 98.628 180.205 98.5105C180.105 98.2339 179.835 97.7673 179.685 97.4927C179.771 97.3041 179.627 96.9284 179.567 96.6741L179.796 96.5111C180.033 96.0763 180.242 94.0475 180.132 93.5526L179.807 93.4381Z" fill="var(--fill-0, #F12D2B)" fill-opacity="0.894118"/>
<path id="Vector_29" d="M111.43 10.0141C113.097 9.889 115.113 10.5211 116.146 11.8824C116.361 12.1659 116.692 12.446 116.737 12.8026C116.275 12.998 115.187 11.7689 114.466 11.3349C113.907 10.9952 113.288 10.7689 112.643 10.6688C111.257 10.4623 110.125 10.8678 109.012 11.6745C107.806 12.8211 107.168 13.7874 107.07 15.5134C107.042 16.0126 107.036 16.6582 106.925 17.1341C106.722 16.9628 106.581 16.0155 106.559 15.6983C106.344 12.5401 108.4 10.3292 111.43 10.0141Z" fill="var(--fill-0, #FBFAFC)" fill-opacity="0.972549"/>
<path id="Vector_30" d="M156.965 4.79061C160.479 4.245 164.537 6.72998 165.208 10.2973C165.313 10.8495 165.465 11.3577 165.215 11.8944L165.054 11.9051C164.403 11.1463 164.605 9.60773 163.553 8.32516C161.422 5.50508 157.958 4.3893 154.69 6.01906C154.177 6.27533 153.509 6.85794 152.993 6.97638L152.948 6.78421C153.68 5.64084 155.744 5.0786 156.965 4.79061Z" fill="var(--fill-0, #FBFAFC)" fill-opacity="0.964706"/>
<path id="Vector_31" d="M120.683 9.08234C123.588 8.85528 125.722 10.2405 126.974 12.8173C127.46 13.8164 127.517 17.1472 126.364 17.6105C126.857 15.9088 126.943 15.1732 126.568 13.4592C126.391 13.1804 126.197 12.7972 126.035 12.5149C124.214 9.35138 120.512 8.52642 117.939 11.336C117.759 11.5328 117.476 11.773 117.204 11.8339L117.127 11.7319C117.497 10.4012 119.414 9.36561 120.683 9.08234Z" fill="var(--fill-0, #FBFAFC)" fill-opacity="0.972549"/>
<path id="Vector_32" d="M109.232 21.84C109.511 21.5296 109.513 21.5439 109.551 21.1241C109.929 16.8924 114.394 15.2286 117.927 17.1459L117.991 17.3303C117.73 17.3817 115.815 16.8685 115.448 16.8619C113.76 16.8321 112.163 17.3392 111.165 18.7417C110.315 19.936 110.444 21.3528 109.938 22.1372C109.555 22.1591 109.555 22.0368 109.248 21.9907L109.232 21.84Z" fill="var(--fill-0, #FBFAFC)" fill-opacity="0.960784"/>
<path id="Vector_33" d="M19.5089 64.116C19.428 63.0502 19.2946 62.623 20.0904 61.8623C20.4279 62.0897 20.5237 62.0597 20.5759 62.399C20.7211 63.3429 20.0844 64.3943 21.0135 65.0833C21.4972 65.442 22.3948 65.6644 22.7036 66.0983C22.6567 66.5943 22.3924 66.6991 21.9752 66.9111C21.1623 66.3619 20.0195 64.9648 19.5089 64.116Z" fill="var(--fill-0, #F12D2B)" fill-opacity="0.921569"/>
<path id="Vector_34" d="M189.18 94.5571C189.128 94.056 188.977 92.9294 189.225 92.5185L189.162 92.4869L189.287 92.327L189.834 92.4271L189.843 92.5058C189.49 93.029 190.198 94.1332 190.453 94.71L190.585 94.6206C190.84 95.0328 190.861 94.9366 190.867 95.3669C190.606 95.8704 190.448 96.0466 190.119 96.501C189.915 96.4369 189.797 96.5601 189.392 96.4473C189.23 96.1497 189.298 95.2281 189.18 94.5571Z" fill="var(--fill-0, #F53A3B)" fill-opacity="0.819608"/>
<path id="Vector_35" d="M24.1059 61.7155C25.4285 62.5256 25.4019 63.663 24.5942 64.9049C24.4072 65.1878 24.1847 65.4454 23.9319 65.6716C23.8933 65.634 23.8548 65.5965 23.8162 65.559C23.8036 65.5479 23.6499 65.3429 23.65 65.342C23.7826 64.3962 23.5242 63.4167 23.6287 62.4633C23.6861 61.9391 23.745 62.0038 24.1059 61.7155Z" fill="var(--fill-0, #F12D2B)" fill-opacity="0.956863"/>
<path id="Vector_36" d="M191.432 95.3454C192.112 95.2928 193.294 94.986 194.132 94.8742C194.201 95.1225 194.277 95.2358 194.219 95.4594C193.305 95.6998 192.384 95.8869 191.466 96.1066L191.348 95.5771L191.432 95.3454Z" fill="var(--fill-0, #D9C4CA)"/>
<path id="Vector_37" d="M179.808 93.4377L180.133 93.5522C180.243 94.0471 180.033 96.0759 179.797 96.5107L179.568 96.6737C179.107 95.3215 179.261 94.6571 179.808 93.4377Z" fill="var(--fill-0, #F12D2B)" fill-opacity="0.980392"/>
<path id="Vector_38" d="M25.3556 37.1065C25.9708 37.7467 25.9897 39.7352 26.7849 40.2404C27.0293 40.4863 27.663 42.3599 27.5183 42.7376C26.7845 41.9566 25.6238 38.249 25.3556 37.1065Z" fill="var(--fill-0, #D9C4CA)" fill-opacity="0.862745"/>
<path id="Vector_39" d="M189.842 92.5047C190.545 92.9794 190.762 93.4448 191.112 94.1839C190.874 94.3182 190.69 94.3793 190.584 94.6196L190.453 94.709C190.198 94.1321 189.49 93.028 189.842 92.5047Z" fill="var(--fill-0, #F12D2B)" fill-opacity="0.854902"/>
<path id="Vector_40" d="M190.584 94.62C190.69 94.3798 190.874 94.3186 191.112 94.1843C191.237 94.5897 191.332 94.9327 191.43 95.345L191.347 95.5767C190.798 96.1058 190.796 96.4818 190.155 96.7174L190.119 96.5004C190.447 96.046 190.606 95.8697 190.866 95.3663C190.861 94.936 190.839 95.0321 190.584 94.62Z" fill="var(--fill-0, #F12D2B)" fill-opacity="0.905882"/>
<path id="Vector_41" d="M107.067 32.7468C107.834 32.7036 108.452 32.7162 108.809 33.4768C108.111 33.519 107.543 33.235 107.067 32.7468Z" fill="var(--fill-0, #FBFAFC)" fill-opacity="0.933333"/>
<path id="Vector_42" d="M196.849 64.5124C196.428 64.5734 195.61 64.909 195.272 64.6051C195.472 64.3057 195.798 64.1687 196.122 63.985C196.304 64.1365 196.788 64.4578 196.849 64.5124Z" fill="var(--fill-0, #FBFAFC)" fill-opacity="0.956863"/>
</g>
</svg>
